<svg xmlns="http://www.w3.org/2000/svg" viewBox="0 0 24 24" fill="none" stroke="currentColor" stroke-width="1.5" stroke-linecap="round" stroke-linejoin="round" aria-hidden="true">
  <path d="M3 4.5 Q3 4 3.5 4 L11.5 4 Q12 4 12 4.5 L12 19.5 Q12 20 11.5 20 L3.5 20 Q3 20 3 19.5 Z"/>
  <path d="M12 4.5 Q12 4 12.5 4 L20.5 4 Q21 4 21 4.5 L21 19.5 Q21 20 20.5 20 L12.5 20 Q12 20 12 19.5 Z"/>
  <line x1="5" y1="8" x2="10" y2="8"/>
  <line x1="5" y1="11" x2="10" y2="11"/>
  <line x1="5" y1="14" x2="9" y2="14"/>
  <line x1="14" y1="8" x2="19" y2="8"/>
  <line x1="14" y1="11" x2="19" y2="11"/>
  <line x1="14" y1="14" x2="18" y2="14"/>
</svg>
